<?xml version="1.0" encoding="UTF-8" standalone="no"?>
<!-- Created with Inkscape (http://www.inkscape.org/) -->

<svg
   xmlns:dc="http://purl.org/dc/elements/1.1/"
   xmlns:cc="http://creativecommons.org/ns#"
   xmlns:rdf="http://www.w3.org/1999/02/22-rdf-syntax-ns#"
   xmlns:svg="http://www.w3.org/2000/svg"
   xmlns="http://www.w3.org/2000/svg"
   xmlns:sodipodi="http://sodipodi.sourceforge.net/DTD/sodipodi-0.dtd"
   xmlns:inkscape="http://www.inkscape.org/namespaces/inkscape"
   width="210mm"
   height="297mm"
   viewBox="0 0 210 297"
   version="1.1"
   id="svg29"
   inkscape:version="0.92.4 (5da689c313, 2019-01-14)"
   sodipodi:docname="arrow-down.svg">
  <defs
     id="defs23" />
  <sodipodi:namedview
     id="base"
     pagecolor="#ffffff"
     bordercolor="#666666"
     borderopacity="1.0"
     inkscape:pageopacity="0.0"
     inkscape:pageshadow="2"
     inkscape:zoom="0.35"
     inkscape:cx="400"
     inkscape:cy="560"
     inkscape:document-units="mm"
     inkscape:current-layer="layer1"
     showgrid="false"
     inkscape:window-width="1366"
     inkscape:window-height="705"
     inkscape:window-x="-8"
     inkscape:window-y="32"
     inkscape:window-maximized="1" />
  <metadata
     id="metadata26">
    <rdf:RDF>
      <cc:Work
         rdf:about="">
        <dc:format>image/svg+xml</dc:format>
        <dc:type
           rdf:resource="http://purl.org/dc/dcmitype/StillImage" />
        <dc:title></dc:title>
      </cc:Work>
    </rdf:RDF>
  </metadata>
  <g
     inkscape:label="Layer 1"
     inkscape:groupmode="layer"
     id="layer1">
    <path
       style="opacity:1;fill:#1c35f0;fill-opacity:1;stroke:#45b528;stroke-width:0.80691898;stroke-linecap:butt;stroke-linejoin:miter;stroke-miterlimit:4;stroke-dasharray:19.36605688, 0.80691905;stroke-dashoffset:0;stroke-opacity:0.50753766;paint-order:normal"
       id="path39"
       d="m 100.92603,29.56621 c -0.12532,4.002137 -0.0692,8.009864 -0.0545,12.014495 -0.0267,2.950284 0.0941,5.903852 -0.0237,8.850537 -0.21884,2.591136 -0.38146,5.187544 -0.49017,7.79374 -0.0786,3.181858 -0.0881,6.366495 -0.0823,9.550181 0.0253,3.166303 -0.0118,6.332485 -0.0143,9.498667 0.0209,3.007643 0.0209,6.015267 0.0268,9.02297 0.0156,2.382132 0.0106,4.764285 0.0149,7.146457 -0.005,3.261626 -0.0523,6.522531 -0.0512,9.784353 -0.0196,3.63591 0.01,7.27167 0.0366,10.90729 -0.0423,2.45303 0.14489,4.93213 -0.16322,7.35515 -1.294284,4.86056 -5.84119,10.04639 -9.176305,7.81886 -0.397618,-0.26557 -0.645506,-0.55985 -1.00455,-0.92993 -0.547757,-1.02722 -1.339041,-1.42436 -2.079292,-2.00631 -0.414832,-0.32613 -0.885765,-0.86714 -1.261701,-1.27361 -1.477233,-1.73063 -2.735942,-3.80691 -4.237968,-5.49222 -1.49442,-1.72852 -3.134884,-3.06476 -4.759245,-4.47795 -0.248513,-0.26192 -0.510055,-0.49822 -0.745539,-0.78573 -0.472191,-0.57652 -0.878705,-1.26521 -1.342383,-1.85696 -0.58346,-0.74462 -1.197301,-1.40128 -1.763711,-2.17825 -0.879845,-1.00741 -1.768836,-2.03387 -2.741297,-2.84078 -0.15051,-0.16626 -0.309103,-0.31746 -0.451512,-0.499 -0.177564,-0.22639 -0.282882,-0.74944 -0.514757,-0.70931 -0.05383,0.01 0.0058,0.27039 0.05257,0.2298 8.11892,-7.030818 5.375674,-9.764202 8.161295,-6.786903 0.775109,0.615023 1.508856,1.407393 2.14218,2.320103 0.835761,1.34775 2.018259,2.0261 2.996464,3.11239 1.096755,1.36227 1.791732,3.23166 2.79793,4.71531 0.732908,0.94979 1.664578,1.45453 2.473218,2.21617 0.437049,0.41164 0.823436,0.93264 1.237547,1.39418 1.050111,1.35222 2.310047,2.22345 3.284029,3.7008 0.906403,1.67512 1.980297,3.11362 2.9525,4.6954 1.025609,1.57975 2.325207,2.69714 3.692723,3.47866 0.643944,0.0921 1.105904,0.75844 1.681704,1.11124 2.53102,1.55073 12.31983,-9.13249 -6.869516,6.1422 0.893728,-1.14858 1.897509,-2.11195 2.735804,-3.35551 0.879706,-1.3504 2.023739,-2.17123 2.998252,-3.34893 1.42387,-2.04335 2.54549,-4.5555 3.68454,-6.96022 1.24764,-2.31699 2.30092,-4.77451 3.21199,-7.41093 0.79303,-2.26097 1.42025,-4.60255 1.93615,-7.03206 0.6799,-2.56201 1.07775,-5.279228 1.79723,-7.814845 0.71858,-2.078532 1.55659,-4.081134 2.54542,-5.896358 0,0 8.28823,-5.181118 8.28823,-5.181118 v 0 c -1.12307,1.569965 -1.86883,3.588551 -2.64565,5.552867 -0.94952,2.340858 -1.13376,5.130157 -1.89184,7.609399 -0.46272,2.525025 -1.05437,4.945045 -1.87714,7.257565 -0.89775,2.71596 -1.84332,5.32574 -3.1956,7.61602 -1.15218,2.43421 -2.32283,4.84093 -3.48808,7.2567 -0.65855,0.75152 -0.33687,0.34557 -0.96219,1.2229 -0.49106,0.58602 -1.06837,0.92669 -1.59123,1.42733 -0.17305,0.16566 -0.32791,0.37035 -0.49185,0.55552 -0.31308,0.46928 -0.56341,1.02863 -0.88785,1.48034 -0.54447,0.75799 -1.37331,1.01813 -1.74627,2.07837 -9.425251,7.68605 -5.682696,8.07422 -10.713592,5.14522 -1.434493,-0.9903 -2.790809,-2.23571 -3.894506,-3.94771 -0.989265,-1.52863 -1.978088,-3.05571 -2.931878,-4.6343 -0.996975,-1.33526 -2.207545,-2.24865 -3.218121,-3.56788 -1.221295,-1.3675 -2.623994,-2.29784 -3.781768,-3.79113 -0.93042,-1.47582 -1.668965,-3.20208 -2.724768,-4.5018 -1.036316,-1.0563 -2.219559,-1.8287 -3.091314,-3.21475 -0.652199,-0.83168 -1.36594,-1.53355 -2.101258,-2.19045 -2.706201,-3.05754 -0.610692,-0.45 7.042324,-8.087396 0.05775,-0.05756 0.06977,0.180299 0.113084,0.261443 0.06239,0.116924 0.350999,0.543926 0.409345,0.611493 0.129545,0.150015 0.272081,0.27316 0.408123,0.40973 0.988125,0.92226 1.939002,1.94713 2.813173,3.09846 1.190772,1.60492 2.415892,3.19765 3.712145,4.59909 1.680583,1.38294 3.270616,2.94256 4.811514,4.65343 1.459799,1.72941 2.757307,3.73336 4.255267,5.39187 1.106531,1.08548 2.354956,1.82336 3.341454,3.17947 0.306203,0.2296 0.483479,0.43148 0.827124,0.45811 0.109699,0.008 0.42052,-0.15322 0.326245,-0.0692 -2.467334,2.2033 -5.005222,4.22756 -7.466687,6.44544 -0.129585,0.11672 0.313987,-0.012 0.446786,-0.12034 0.140438,-0.11451 0.222115,-0.34427 0.333173,-0.51638 0.622271,-2.21279 0.213711,-4.71429 0.328851,-7.05284 0.02677,-3.65418 0.05609,-7.30849 0.03654,-10.96292 9.97e-4,-3.23582 -0.04606,-6.47069 -0.05126,-9.706283 0.0046,-2.389753 -4.27e-4,-4.779466 0.01502,-7.16918 0.0058,-3.020438 0.0052,-6.040837 0.02422,-9.061236 -0.0042,-3.158481 -0.04604,-6.316961 -0.01983,-9.475583 0.01201,-3.198351 0.0034,-6.397203 0.06261,-9.594664 0.03555,-2.622686 0.198271,-5.228255 0.444268,-7.825889 0.22277,-2.913373 0.04792,-5.869594 0.121914,-8.796552 0.01442,-3.976877 0.07203,-7.957108 -0.05459,-11.931383 0,0 8.033312,-6.115115 8.033312,-6.115115 z"
       inkscape:connector-curvature="0" />
  </g>
</svg>
